<?xml version="1.0" encoding="UTF-8" standalone="no"?>
<!DOCTYPE svg PUBLIC "-//W3C//DTD SVG 1.1//EN" "http://www.w3.org/Graphics/SVG/1.1/DTD/svg11.dtd">
<svg width="100%" height="100%" viewBox="0 0 11 11" version="1.1" xmlns="http://www.w3.org/2000/svg" xmlns:xlink="http://www.w3.org/1999/xlink" xml:space="preserve" xmlns:serif="http://www.serif.com/" style="fill-rule:evenodd;clip-rule:evenodd;">
    <g id="ArtBoard1" transform="matrix(1.04689,0,0,1.04958,1.09792,1.54544)">
        <g id="path7494-7-13-5-8" transform="matrix(0.955206,0,0,-0.952762,-26.7723,233.392)">
            <path d="M28.789,237.313L36.176,244.7" style="fill:none;fill-rule:nonzero;stroke:rgb(10,201,19);stroke-width:0.75px;"/>
        </g>
        <g transform="matrix(1.90711,0,0,1.90223,-2.1767,-2.73958)">
            <path d="M3.373,0.667C4.893,0.667 6.127,1.901 6.127,3.422C6.127,4.942 4.893,6.177 3.373,6.177C1.852,6.177 0.618,4.942 0.618,3.422C0.618,1.901 1.852,0.667 3.373,0.667ZM3.373,1.016C4.701,1.016 5.779,2.094 5.779,3.422C5.779,4.75 4.701,5.828 3.373,5.828C2.045,5.828 0.966,4.75 0.966,3.422C0.966,2.094 2.045,1.016 3.373,1.016Z" style="fill:rgb(10,201,19);"/>
        </g>
        <g id="path7496-6-99-1-3" transform="matrix(0.955206,0,0,-0.952762,-26.7723,233.392)">
            <path d="M28.795,244.769L36.27,237.294" style="fill:none;fill-rule:nonzero;stroke:rgb(10,201,19);stroke-width:0.75px;"/>
        </g>
    </g>
</svg>
